<svg width="89" height="12" viewBox="0 0 89 12" fill="none" xmlns="http://www.w3.org/2000/svg">
<path d="M5.70703 5.49609H6.5625C6.5625 6.10938 6.38672 6.57031 6.03516 6.87891C5.6875 7.18359 5.21484 7.33594 4.61719 7.33594C4.20312 7.33594 3.84375 7.24023 3.53906 7.04883C3.23828 6.85742 3.00391 6.5918 2.83594 6.25195C2.67188 5.91211 2.58984 5.51758 2.58984 5.06836V4.39453C2.58984 3.94531 2.67188 3.55078 2.83594 3.21094C3.00391 2.87109 3.23828 2.60547 3.53906 2.41406C3.84375 2.22266 4.20312 2.12695 4.61719 2.12695C5.21484 2.12695 5.68945 2.2793 6.04102 2.58398C6.39258 2.88867 6.56836 3.34766 6.56836 3.96094H5.71289C5.71289 3.57422 5.61914 3.29688 5.43164 3.12891C5.24805 2.96094 4.97656 2.87695 4.61719 2.87695C4.35938 2.87695 4.14258 2.94141 3.9668 3.07031C3.79102 3.19922 3.6582 3.37891 3.56836 3.60938C3.47852 3.83594 3.43359 4.0957 3.43359 4.38867V5.06836C3.43359 5.36523 3.47852 5.62891 3.56836 5.85938C3.6582 6.08594 3.79102 6.26367 3.9668 6.39258C4.14258 6.52148 4.35938 6.58594 4.61719 6.58594C4.97656 6.58594 5.24805 6.50195 5.43164 6.33398C5.61523 6.16602 5.70703 5.88672 5.70703 5.49609ZM1.21289 4.72852C1.21289 5.24805 1.30273 5.73242 1.48242 6.18164C1.66211 6.63086 1.91211 7.02344 2.23242 7.35938C2.55273 7.69531 2.92383 7.95703 3.3457 8.14453C3.76758 8.33203 4.21875 8.42578 4.69922 8.42578C5.17969 8.42578 5.62891 8.33203 6.04688 8.14453C6.46875 7.95703 6.83789 7.69531 7.1543 7.35938C7.47461 7.02344 7.72461 6.63086 7.9043 6.18164C8.08398 5.73242 8.17383 5.24805 8.17383 4.72852C8.17383 4.20508 8.08398 3.7207 7.9043 3.27539C7.72461 2.83008 7.47461 2.44141 7.1543 2.10938C6.83789 1.77344 6.46875 1.51367 6.04688 1.33008C5.62891 1.14258 5.17969 1.04883 4.69922 1.04883C4.21875 1.04883 3.76758 1.14258 3.3457 1.33008C2.92383 1.51367 2.55273 1.77344 2.23242 2.10938C1.91211 2.44141 1.66211 2.83008 1.48242 3.27539C1.30273 3.7207 1.21289 4.20508 1.21289 4.72852ZM0.539062 4.72852C0.539062 4.10742 0.646484 3.53125 0.861328 3C1.07617 2.46875 1.375 2.00586 1.75781 1.61133C2.14062 1.21289 2.58203 0.904297 3.08203 0.685547C3.58594 0.462891 4.125 0.351562 4.69922 0.351562C5.27344 0.351562 5.81055 0.462891 6.31055 0.685547C6.81445 0.904297 7.25586 1.21289 7.63477 1.61133C8.01758 2.00586 8.31641 2.46875 8.53125 3C8.74609 3.53125 8.85352 4.10742 8.85352 4.72852C8.85352 5.34961 8.74609 5.92578 8.53125 6.45703C8.31641 6.98828 8.01758 7.45508 7.63477 7.85742C7.25586 8.25586 6.81445 8.56641 6.31055 8.78906C5.81055 9.01172 5.27344 9.12305 4.69922 9.12305C4.125 9.12305 3.58594 9.01172 3.08203 8.78906C2.58203 8.56641 2.14062 8.25586 1.75781 7.85742C1.375 7.45508 1.07617 6.98828 0.861328 6.45703C0.646484 5.92578 0.539062 5.34961 0.539062 4.72852ZM18.709 8.10938V9H13.125V8.2207L15.9199 5.10938C16.2637 4.72656 16.5293 4.40234 16.7168 4.13672C16.9082 3.86719 17.041 3.62695 17.1152 3.41602C17.1934 3.20117 17.2324 2.98242 17.2324 2.75977C17.2324 2.47852 17.1738 2.22461 17.0566 1.99805C16.9434 1.76758 16.7754 1.58398 16.5527 1.44727C16.3301 1.31055 16.0605 1.24219 15.7441 1.24219C15.3652 1.24219 15.0488 1.31641 14.7949 1.46484C14.5449 1.60938 14.3574 1.8125 14.2324 2.07422C14.1074 2.33594 14.0449 2.63672 14.0449 2.97656H12.9609C12.9609 2.49609 13.0664 2.05664 13.2773 1.6582C13.4883 1.25977 13.8008 0.943359 14.2148 0.708984C14.6289 0.470703 15.1387 0.351562 15.7441 0.351562C16.2832 0.351562 16.7441 0.447266 17.127 0.638672C17.5098 0.826172 17.8027 1.0918 18.0059 1.43555C18.2129 1.77539 18.3164 2.17383 18.3164 2.63086C18.3164 2.88086 18.2734 3.13477 18.1875 3.39258C18.1055 3.64648 17.9902 3.90039 17.8418 4.1543C17.6973 4.4082 17.5273 4.6582 17.332 4.9043C17.1406 5.15039 16.9355 5.39258 16.7168 5.63086L14.4316 8.10938H18.709ZM25.2246 4.05469V5.35547C25.2246 6.05469 25.1621 6.64453 25.0371 7.125C24.9121 7.60547 24.7324 7.99219 24.498 8.28516C24.2637 8.57812 23.9805 8.79102 23.6484 8.92383C23.3203 9.05273 22.9492 9.11719 22.5352 9.11719C22.207 9.11719 21.9043 9.07617 21.627 8.99414C21.3496 8.91211 21.0996 8.78125 20.877 8.60156C20.6582 8.41797 20.4707 8.17969 20.3145 7.88672C20.1582 7.59375 20.0391 7.23828 19.957 6.82031C19.875 6.40234 19.834 5.91406 19.834 5.35547V4.05469C19.834 3.35547 19.8965 2.76953 20.0215 2.29688C20.1504 1.82422 20.332 1.44531 20.5664 1.16016C20.8008 0.871094 21.082 0.664062 21.4102 0.539062C21.7422 0.414063 22.1133 0.351562 22.5234 0.351562C22.8555 0.351562 23.1602 0.392578 23.4375 0.474609C23.7188 0.552734 23.9688 0.679688 24.1875 0.855469C24.4062 1.02734 24.5918 1.25781 24.7441 1.54688C24.9004 1.83203 25.0195 2.18164 25.1016 2.5957C25.1836 3.00977 25.2246 3.49609 25.2246 4.05469ZM24.1348 5.53125V3.87305C24.1348 3.49023 24.1113 3.1543 24.0645 2.86523C24.0215 2.57227 23.957 2.32227 23.8711 2.11523C23.7852 1.9082 23.6758 1.74023 23.543 1.61133C23.4141 1.48242 23.2637 1.38867 23.0918 1.33008C22.9238 1.26758 22.7344 1.23633 22.5234 1.23633C22.2656 1.23633 22.0371 1.28516 21.8379 1.38281C21.6387 1.47656 21.4707 1.62695 21.334 1.83398C21.2012 2.04102 21.0996 2.3125 21.0293 2.64844C20.959 2.98438 20.9238 3.39258 20.9238 3.87305V5.53125C20.9238 5.91406 20.9453 6.25195 20.9883 6.54492C21.0352 6.83789 21.1035 7.0918 21.1934 7.30664C21.2832 7.51758 21.3926 7.69141 21.5215 7.82812C21.6504 7.96484 21.7988 8.06641 21.9668 8.13281C22.1387 8.19531 22.3281 8.22656 22.5352 8.22656C22.8008 8.22656 23.0332 8.17578 23.2324 8.07422C23.4316 7.97266 23.5977 7.81445 23.7305 7.59961C23.8672 7.38086 23.9688 7.10156 24.0352 6.76172C24.1016 6.41797 24.1348 6.00781 24.1348 5.53125ZM32.209 8.10938V9H26.625V8.2207L29.4199 5.10938C29.7637 4.72656 30.0293 4.40234 30.2168 4.13672C30.4082 3.86719 30.541 3.62695 30.6152 3.41602C30.6934 3.20117 30.7324 2.98242 30.7324 2.75977C30.7324 2.47852 30.6738 2.22461 30.5566 1.99805C30.4434 1.76758 30.2754 1.58398 30.0527 1.44727C29.8301 1.31055 29.5605 1.24219 29.2441 1.24219C28.8652 1.24219 28.5488 1.31641 28.2949 1.46484C28.0449 1.60938 27.8574 1.8125 27.7324 2.07422C27.6074 2.33594 27.5449 2.63672 27.5449 2.97656H26.4609C26.4609 2.49609 26.5664 2.05664 26.7773 1.6582C26.9883 1.25977 27.3008 0.943359 27.7148 0.708984C28.1289 0.470703 28.6387 0.351562 29.2441 0.351562C29.7832 0.351562 30.2441 0.447266 30.627 0.638672C31.0098 0.826172 31.3027 1.0918 31.5059 1.43555C31.7129 1.77539 31.8164 2.17383 31.8164 2.63086C31.8164 2.88086 31.7734 3.13477 31.6875 3.39258C31.6055 3.64648 31.4902 3.90039 31.3418 4.1543C31.1973 4.4082 31.0273 4.6582 30.832 4.9043C30.6406 5.15039 30.4355 5.39258 30.2168 5.63086L27.9316 8.10938H32.209ZM39.1348 6.12891V7.01953H32.9707V6.38086L36.791 0.46875H37.6758L36.7266 2.17969L34.2012 6.12891H39.1348ZM37.9453 0.46875V9H36.8613V0.46875H37.9453ZM44.5898 0.46875V9H43.459V0.46875H44.5898ZM51.7969 6.28711H52.9219C52.8633 6.82617 52.709 7.30859 52.459 7.73438C52.209 8.16016 51.8555 8.49805 51.3984 8.74805C50.9414 8.99414 50.3711 9.11719 49.6875 9.11719C49.1875 9.11719 48.7324 9.02344 48.3223 8.83594C47.916 8.64844 47.5664 8.38281 47.2734 8.03906C46.9805 7.69141 46.7539 7.27539 46.5938 6.79102C46.4375 6.30273 46.3594 5.75977 46.3594 5.16211V4.3125C46.3594 3.71484 46.4375 3.17383 46.5938 2.68945C46.7539 2.20117 46.9824 1.7832 47.2793 1.43555C47.5801 1.08789 47.9414 0.820312 48.3633 0.632812C48.7852 0.445312 49.2598 0.351562 49.7871 0.351562C50.4316 0.351562 50.9766 0.472656 51.4219 0.714844C51.8672 0.957031 52.2129 1.29297 52.459 1.72266C52.709 2.14844 52.8633 2.64258 52.9219 3.20508H51.7969C51.7422 2.80664 51.6406 2.46484 51.4922 2.17969C51.3438 1.89063 51.1328 1.66797 50.8594 1.51172C50.5859 1.35547 50.2285 1.27734 49.7871 1.27734C49.4082 1.27734 49.0742 1.34961 48.7852 1.49414C48.5 1.63867 48.2598 1.84375 48.0645 2.10938C47.873 2.375 47.7285 2.69336 47.6309 3.06445C47.5332 3.43555 47.4844 3.84766 47.4844 4.30078V5.16211C47.4844 5.58008 47.5273 5.97266 47.6133 6.33984C47.7031 6.70703 47.8379 7.0293 48.0176 7.30664C48.1973 7.58398 48.4258 7.80273 48.7031 7.96289C48.9805 8.11914 49.3086 8.19727 49.6875 8.19727C50.168 8.19727 50.5508 8.12109 50.8359 7.96875C51.1211 7.81641 51.3359 7.59766 51.4805 7.3125C51.6289 7.02734 51.7344 6.68555 51.7969 6.28711ZM60.0352 4.13672V5.05664H55.418V4.13672H60.0352ZM55.5938 0.46875V9H54.4629V0.46875H55.5938ZM61.0195 0.46875V9H59.8945V0.46875H61.0195ZM66.9727 2.66016H67.957V8.86523C67.957 9.42383 67.8438 9.90039 67.6172 10.2949C67.3906 10.6895 67.0742 10.9883 66.668 11.1914C66.2656 11.3984 65.8008 11.502 65.2734 11.502C65.0547 11.502 64.7969 11.4668 64.5 11.3965C64.207 11.3301 63.918 11.2148 63.6328 11.0508C63.3516 10.8906 63.1152 10.6738 62.9238 10.4004L63.4922 9.75586C63.7578 10.0762 64.0352 10.2988 64.3242 10.4238C64.6172 10.5488 64.9062 10.6113 65.1914 10.6113C65.5352 10.6113 65.832 10.5469 66.082 10.418C66.332 10.2891 66.5254 10.0977 66.6621 9.84375C66.8027 9.59375 66.873 9.28516 66.873 8.91797V4.05469L66.9727 2.66016ZM62.6074 5.90039V5.77734C62.6074 5.29297 62.6641 4.85352 62.7773 4.45898C62.8945 4.06055 63.0605 3.71875 63.2754 3.43359C63.4941 3.14844 63.7578 2.92969 64.0664 2.77734C64.375 2.62109 64.7227 2.54297 65.1094 2.54297C65.5078 2.54297 65.8555 2.61328 66.1523 2.75391C66.4531 2.89062 66.707 3.0918 66.9141 3.35742C67.125 3.61914 67.291 3.93555 67.4121 4.30664C67.5332 4.67773 67.6172 5.09766 67.6641 5.56641V6.10547C67.6211 6.57031 67.5371 6.98828 67.4121 7.35938C67.291 7.73047 67.125 8.04688 66.9141 8.30859C66.707 8.57031 66.4531 8.77148 66.1523 8.91211C65.8516 9.04883 65.5 9.11719 65.0977 9.11719C64.7188 9.11719 64.375 9.03711 64.0664 8.87695C63.7617 8.7168 63.5 8.49219 63.2812 8.20312C63.0625 7.91406 62.8945 7.57422 62.7773 7.18359C62.6641 6.78906 62.6074 6.36133 62.6074 5.90039ZM63.6914 5.77734V5.90039C63.6914 6.2168 63.7227 6.51367 63.7852 6.79102C63.8516 7.06836 63.9512 7.3125 64.084 7.52344C64.2207 7.73438 64.3945 7.90039 64.6055 8.02148C64.8164 8.13867 65.0684 8.19727 65.3613 8.19727C65.7207 8.19727 66.0176 8.12109 66.252 7.96875C66.4863 7.81641 66.6719 7.61523 66.8086 7.36523C66.9492 7.11523 67.0586 6.84375 67.1367 6.55078V5.13867C67.0938 4.92383 67.0273 4.7168 66.9375 4.51758C66.8516 4.31445 66.7383 4.13477 66.5977 3.97852C66.4609 3.81836 66.291 3.69141 66.0879 3.59766C65.8848 3.50391 65.6465 3.45703 65.373 3.45703C65.0762 3.45703 64.8203 3.51953 64.6055 3.64453C64.3945 3.76562 64.2207 3.93359 64.084 4.14844C63.9512 4.35938 63.8516 4.60547 63.7852 4.88672C63.7227 5.16406 63.6914 5.46094 63.6914 5.77734ZM70.6875 3.65625V9H69.6035V2.66016H70.6582L70.6875 3.65625ZM72.668 2.625L72.6621 3.63281C72.5723 3.61328 72.4863 3.60156 72.4043 3.59766C72.3262 3.58984 72.2363 3.58594 72.1348 3.58594C71.8848 3.58594 71.6641 3.625 71.4727 3.70312C71.2812 3.78125 71.1191 3.89062 70.9863 4.03125C70.8535 4.17188 70.748 4.33984 70.6699 4.53516C70.5957 4.72656 70.5469 4.9375 70.5234 5.16797L70.2188 5.34375C70.2188 4.96094 70.2559 4.60156 70.3301 4.26562C70.4082 3.92969 70.5273 3.63281 70.6875 3.375C70.8477 3.11328 71.0508 2.91016 71.2969 2.76562C71.5469 2.61719 71.8438 2.54297 72.1875 2.54297C72.2656 2.54297 72.3555 2.55273 72.457 2.57227C72.5586 2.58789 72.6289 2.60547 72.668 2.625ZM77.1738 7.91602V4.65234C77.1738 4.40234 77.123 4.18555 77.0215 4.00195C76.9238 3.81445 76.7754 3.66992 76.5762 3.56836C76.377 3.4668 76.1309 3.41602 75.8379 3.41602C75.5645 3.41602 75.3242 3.46289 75.1172 3.55664C74.9141 3.65039 74.7539 3.77344 74.6367 3.92578C74.5234 4.07812 74.4668 4.24219 74.4668 4.41797H73.3828C73.3828 4.19141 73.4414 3.9668 73.5586 3.74414C73.6758 3.52148 73.8438 3.32031 74.0625 3.14062C74.2852 2.95703 74.5508 2.8125 74.8594 2.70703C75.1719 2.59766 75.5195 2.54297 75.9023 2.54297C76.3633 2.54297 76.7695 2.62109 77.1211 2.77734C77.4766 2.93359 77.7539 3.16992 77.9531 3.48633C78.1562 3.79883 78.2578 4.19141 78.2578 4.66406V7.61719C78.2578 7.82812 78.2754 8.05273 78.3105 8.29102C78.3496 8.5293 78.4062 8.73438 78.4805 8.90625V9H77.3496C77.2949 8.875 77.252 8.70898 77.2207 8.50195C77.1895 8.29102 77.1738 8.0957 77.1738 7.91602ZM77.3613 5.15625L77.373 5.91797H76.2773C75.9688 5.91797 75.6934 5.94336 75.4512 5.99414C75.209 6.04102 75.0059 6.11328 74.8418 6.21094C74.6777 6.30859 74.5527 6.43164 74.4668 6.58008C74.3809 6.72461 74.3379 6.89453 74.3379 7.08984C74.3379 7.28906 74.3828 7.4707 74.4727 7.63477C74.5625 7.79883 74.6973 7.92969 74.877 8.02734C75.0605 8.12109 75.2852 8.16797 75.5508 8.16797C75.8828 8.16797 76.1758 8.09766 76.4297 7.95703C76.6836 7.81641 76.8848 7.64453 77.0332 7.44141C77.1855 7.23828 77.2676 7.04102 77.2793 6.84961L77.7422 7.37109C77.7148 7.53516 77.6406 7.7168 77.5195 7.91602C77.3984 8.11523 77.2363 8.30664 77.0332 8.49023C76.834 8.66992 76.5957 8.82031 76.3184 8.94141C76.0449 9.05859 75.7363 9.11719 75.3926 9.11719C74.9629 9.11719 74.5859 9.0332 74.2617 8.86523C73.9414 8.69727 73.6914 8.47266 73.5117 8.19141C73.3359 7.90625 73.248 7.58789 73.248 7.23633C73.248 6.89648 73.3145 6.59766 73.4473 6.33984C73.5801 6.07812 73.7715 5.86133 74.0215 5.68945C74.2715 5.51367 74.5723 5.38086 74.9238 5.29102C75.2754 5.20117 75.668 5.15625 76.1016 5.15625H77.3613ZM81.041 3.91992V9H79.9512V2.66016H80.9824L81.041 3.91992ZM80.8184 5.58984L80.3145 5.57227C80.3184 5.13867 80.375 4.73828 80.4844 4.37109C80.5938 4 80.7559 3.67773 80.9707 3.4043C81.1855 3.13086 81.4531 2.91992 81.7734 2.77148C82.0938 2.61914 82.4648 2.54297 82.8867 2.54297C83.1836 2.54297 83.457 2.58594 83.707 2.67188C83.957 2.75391 84.1738 2.88477 84.3574 3.06445C84.541 3.24414 84.6836 3.47461 84.7852 3.75586C84.8867 4.03711 84.9375 4.37695 84.9375 4.77539V9H83.8535V4.82812C83.8535 4.49609 83.7969 4.23047 83.6836 4.03125C83.5742 3.83203 83.418 3.6875 83.2148 3.59766C83.0117 3.50391 82.7734 3.45703 82.5 3.45703C82.1797 3.45703 81.9121 3.51367 81.6973 3.62695C81.4824 3.74023 81.3105 3.89648 81.1816 4.0957C81.0527 4.29492 80.959 4.52344 80.9004 4.78125C80.8457 5.03516 80.8184 5.30469 80.8184 5.58984ZM84.9258 4.99219L84.1992 5.21484C84.2031 4.86719 84.2598 4.5332 84.3691 4.21289C84.4824 3.89258 84.6445 3.60742 84.8555 3.35742C85.0703 3.10742 85.334 2.91016 85.6465 2.76562C85.959 2.61719 86.3164 2.54297 86.7188 2.54297C87.0586 2.54297 87.3594 2.58789 87.6211 2.67773C87.8867 2.76758 88.1094 2.90625 88.2891 3.09375C88.4727 3.27734 88.6113 3.51367 88.7051 3.80273C88.7988 4.0918 88.8457 4.43555 88.8457 4.83398V9H87.7559V4.82227C87.7559 4.4668 87.6992 4.19141 87.5859 3.99609C87.4766 3.79688 87.3203 3.6582 87.1172 3.58008C86.918 3.49805 86.6797 3.45703 86.4023 3.45703C86.1641 3.45703 85.9531 3.49805 85.7695 3.58008C85.5859 3.66211 85.4316 3.77539 85.3066 3.91992C85.1816 4.06055 85.0859 4.22266 85.0195 4.40625C84.957 4.58984 84.9258 4.78516 84.9258 4.99219Z" fill="#737373"/>
</svg>
